<svg width="104" height="77" viewBox="0 0 104 77" fill="none" xmlns="http://www.w3.org/2000/svg">
<path d="M23.16 15.4C23.16 17.1867 22.7467 18.8133 21.92 20.28C21.0933 21.72 19.8667 22.8667 18.24 23.72C16.64 24.5733 14.6933 25 12.4 25H8.88V34H2.98023e-08V5.68H12.4C15.8667 5.68 18.52 6.56 20.36 8.32C22.2267 10.08 23.16 12.44 23.16 15.4ZM11.4 18C13.24 18 14.16 17.1333 14.16 15.4C14.16 13.6667 13.24 12.8 11.4 12.8H8.88V18H11.4ZM30.4566 9.64C28.9099 9.64 27.6699 9.22667 26.7366 8.4C25.8032 7.57333 25.3366 6.53333 25.3366 5.28C25.3366 4 25.8032 2.94667 26.7366 2.12C27.6699 1.26666 28.9099 0.839998 30.4566 0.839998C31.9766 0.839998 33.2032 1.26666 34.1366 2.12C35.0699 2.94667 35.5366 4 35.5366 5.28C35.5366 6.53333 35.0699 7.57333 34.1366 8.4C33.2032 9.22667 31.9766 9.64 30.4566 9.64ZM34.8566 11.44V34H25.9766V11.44H34.8566ZM47.3872 26.64H56.7872V34H37.6672V27.04L46.2672 18.8H37.7872V11.44H56.3872V18.4L47.3872 26.64ZM68.0903 26.64H77.4903V34H58.3703V27.04L66.9703 18.8H58.4903V11.44H77.0903V18.4L68.0903 26.64ZM79.0734 22.72C79.0734 20.3467 79.4734 18.2933 80.2734 16.56C81.1001 14.8 82.2201 13.4667 83.6334 12.56C85.0468 11.6267 86.6334 11.16 88.3934 11.16C89.8601 11.16 91.1268 11.4667 92.1934 12.08C93.2601 12.6667 94.0734 13.48 94.6334 14.52V11.44H103.473V34H94.6334V30.92C94.0734 31.96 93.2601 32.7867 92.1934 33.4C91.1268 33.9867 89.8601 34.28 88.3934 34.28C86.6334 34.28 85.0468 33.8267 83.6334 32.92C82.2201 31.9867 81.1001 30.6533 80.2734 28.92C79.4734 27.16 79.0734 25.0933 79.0734 22.72ZM94.6334 22.72C94.6334 21.52 94.3268 20.5867 93.7134 19.92C93.1001 19.2533 92.3134 18.92 91.3534 18.92C90.3934 18.92 89.6068 19.2533 88.9934 19.92C88.3801 20.5867 88.0734 21.52 88.0734 22.72C88.0734 23.92 88.3801 24.8533 88.9934 25.52C89.6068 26.1867 90.3934 26.52 91.3534 26.52C92.3134 26.52 93.1001 26.1867 93.7134 25.52C94.3268 24.8533 94.6334 23.92 94.6334 22.72Z" fill="#D64343"/>
<path d="M5.644 51.878C7.62 51.878 9.32733 52.2507 10.766 52.996C12.222 53.724 13.3313 54.7727 14.094 56.142C14.874 57.5113 15.264 59.1233 15.264 60.978C15.264 62.8327 14.874 64.4447 14.094 65.814C13.3313 67.166 12.222 68.206 10.766 68.934C9.32733 69.6447 7.62 70 5.644 70H0.00200018V51.878H5.644ZM5.644 68.05C7.984 68.05 9.76933 67.4347 11 66.204C12.2307 64.956 12.846 63.214 12.846 60.978C12.846 58.7247 12.222 56.9653 10.974 55.7C9.74333 54.4347 7.96667 53.802 5.644 53.802H2.368V68.05H5.644ZM31.9048 62.33C31.9048 62.7807 31.8788 63.2573 31.8268 63.76H20.4388C20.5255 65.164 21.0021 66.2647 21.8688 67.062C22.7528 67.842 23.8188 68.232 25.0668 68.232C26.0895 68.232 26.9388 67.998 27.6148 67.53C28.3081 67.0447 28.7935 66.4033 29.0708 65.606H31.6188C31.2375 66.9753 30.4748 68.0933 29.3308 68.96C28.1868 69.8093 26.7655 70.234 25.0668 70.234C23.7148 70.234 22.5015 69.9307 21.4268 69.324C20.3695 68.7173 19.5375 67.8593 18.9308 66.75C18.3241 65.6233 18.0208 64.3233 18.0208 62.85C18.0208 61.3767 18.3155 60.0853 18.9048 58.976C19.4941 57.8667 20.3175 57.0173 21.3748 56.428C22.4495 55.8213 23.6801 55.518 25.0668 55.518C26.4188 55.518 27.6148 55.8127 28.6548 56.402C29.6948 56.9913 30.4921 57.806 31.0468 58.846C31.6188 59.8687 31.9048 61.03 31.9048 62.33ZM29.4608 61.836C29.4608 60.9347 29.2615 60.1633 28.8628 59.522C28.4641 58.8633 27.9181 58.3693 27.2248 58.04C26.5488 57.6933 25.7948 57.52 24.9628 57.52C23.7668 57.52 22.7441 57.9013 21.8948 58.664C21.0628 59.4267 20.5861 60.484 20.4648 61.836H29.4608ZM37.9139 50.76V70H35.5479V50.76H37.9139ZM43.6883 53.438C43.2376 53.438 42.8563 53.282 42.5443 52.97C42.2323 52.658 42.0763 52.2767 42.0763 51.826C42.0763 51.3753 42.2323 50.994 42.5443 50.682C42.8563 50.37 43.2376 50.214 43.6883 50.214C44.1216 50.214 44.4856 50.37 44.7803 50.682C45.0923 50.994 45.2483 51.3753 45.2483 51.826C45.2483 52.2767 45.0923 52.658 44.7803 52.97C44.4856 53.282 44.1216 53.438 43.6883 53.438ZM44.8323 55.752V70H42.4663V55.752H44.8323ZM54.6887 67.816L59.1087 55.752H61.6307L56.0407 70H53.2847L47.6947 55.752H50.2427L54.6887 67.816ZM77.479 62.33C77.479 62.7807 77.453 63.2573 77.401 63.76H66.013C66.0996 65.164 66.5763 66.2647 67.443 67.062C68.327 67.842 69.393 68.232 70.641 68.232C71.6636 68.232 72.513 67.998 73.189 67.53C73.8823 67.0447 74.3676 66.4033 74.645 65.606H77.193C76.8116 66.9753 76.049 68.0933 74.905 68.96C73.761 69.8093 72.3396 70.234 70.641 70.234C69.289 70.234 68.0756 69.9307 67.001 69.324C65.9436 68.7173 65.1116 67.8593 64.505 66.75C63.8983 65.6233 63.595 64.3233 63.595 62.85C63.595 61.3767 63.8896 60.0853 64.479 58.976C65.0683 57.8667 65.8916 57.0173 66.949 56.428C68.0236 55.8213 69.2543 55.518 70.641 55.518C71.993 55.518 73.189 55.8127 74.229 56.402C75.269 56.9913 76.0663 57.806 76.621 58.846C77.193 59.8687 77.479 61.03 77.479 62.33ZM75.035 61.836C75.035 60.9347 74.8356 60.1633 74.437 59.522C74.0383 58.8633 73.4923 58.3693 72.799 58.04C72.123 57.6933 71.369 57.52 70.537 57.52C69.341 57.52 68.3183 57.9013 67.469 58.664C66.637 59.4267 66.1603 60.484 66.039 61.836H75.035ZM83.488 58.066C83.904 57.2513 84.4933 56.6187 85.256 56.168C86.036 55.7173 86.9807 55.492 88.09 55.492V57.936H87.466C84.814 57.936 83.488 59.3747 83.488 62.252V70H81.122V55.752H83.488V58.066ZM103.613 55.752L95.0332 76.708H92.5892L95.3972 69.844L89.6512 55.752H92.2772L96.7492 67.296L101.169 55.752H103.613Z" fill="#DBDBDB"/>
</svg>
